<?xml version="1.0" encoding="UTF-8"?>
<svg xmlns="http://www.w3.org/2000/svg" xmlns:xlink="http://www.w3.org/1999/xlink" width="30px" height="30px" viewBox="0 0 30 30" version="1.1">
<g id="surface1">
<path style=" stroke:none;fill-rule:nonzero;fill:rgb(0%,0%,0%);fill-opacity:1;" d="M 1.617188 0.0859375 C 1.355469 0.179688 1.144531 0.410156 1.054688 0.703125 C 1.007812 0.84375 0.996094 4.804688 1.007812 13.691406 L 1.027344 26.476562 L 1.148438 26.640625 C 1.214844 26.730469 1.347656 26.859375 1.449219 26.921875 C 1.6875 27.09375 15.382812 30.03125 15.6875 29.980469 C 15.914062 29.941406 16.25 29.710938 16.359375 29.511719 C 16.414062 29.425781 16.449219 29.003906 16.464844 28.242188 L 16.496094 27.097656 L 19.582031 27.070312 C 22.582031 27.039062 22.671875 27.035156 22.835938 26.917969 C 22.921875 26.851562 23.058594 26.683594 23.132812 26.542969 L 23.261719 26.285156 L 23.261719 22.257812 C 23.261719 19.558594 23.238281 18.175781 23.199219 18.0625 C 23.105469 17.8125 22.792969 17.523438 22.542969 17.453125 C 22.113281 17.34375 21.640625 17.546875 21.445312 17.933594 C 21.335938 18.152344 21.328125 18.292969 21.328125 21.648438 L 21.328125 25.136719 L 16.464844 25.136719 L 16.464844 14.378906 C 16.464844 6.527344 16.449219 3.589844 16.402344 3.496094 C 16.300781 3.308594 16.109375 3.105469 15.933594 3.015625 C 15.851562 2.96875 14.785156 2.722656 13.558594 2.460938 C 12.339844 2.195312 11.316406 1.972656 11.28125 1.960938 C 11.25 1.949219 13.496094 1.9375 16.273438 1.9375 L 21.328125 1.933594 L 21.339844 5.5 C 21.359375 9.003906 21.359375 9.074219 21.480469 9.234375 C 21.710938 9.542969 21.890625 9.636719 22.285156 9.636719 C 22.722656 9.636719 22.988281 9.480469 23.152344 9.117188 C 23.257812 8.886719 23.261719 8.648438 23.261719 4.828125 L 23.261719 0.777344 L 23.128906 0.527344 C 23.035156 0.351562 22.910156 0.226562 22.734375 0.132812 L 22.484375 0 L 12.164062 0 C 3.492188 0.00390625 1.8125 0.015625 1.617188 0.0859375 Z M 8.835938 3.425781 L 14.53125 4.652344 L 14.53125 16.246094 C 14.53125 25.5 14.515625 27.835938 14.460938 27.820312 C 14.421875 27.800781 11.808594 27.238281 8.660156 26.566406 L 2.929688 25.339844 L 2.929688 13.75 C 2.929688 2.648438 2.9375 2.15625 3.035156 2.179688 C 3.09375 2.195312 5.703125 2.757812 8.835938 3.425781 Z M 8.835938 3.425781 "/>
<path style=" stroke:none;fill-rule:nonzero;fill:rgb(0%,0%,0%);fill-opacity:1;" d="M 24.867188 9.730469 C 24.628906 9.800781 24.339844 10.128906 24.257812 10.429688 C 24.140625 10.875 24.246094 11.066406 25.039062 11.875 L 25.742188 12.597656 L 18.125 12.597656 L 17.925781 12.730469 C 17.585938 12.960938 17.449219 13.21875 17.472656 13.597656 C 17.503906 13.96875 17.660156 14.242188 17.949219 14.402344 C 18.117188 14.496094 18.457031 14.5 21.9375 14.519531 L 25.742188 14.535156 L 25.039062 15.25 C 24.464844 15.824219 24.316406 16.011719 24.265625 16.21875 C 24.054688 16.996094 24.890625 17.675781 25.625 17.308594 C 25.886719 17.171875 28.8125 14.253906 28.953125 13.992188 C 29.074219 13.75 29.09375 13.453125 29.003906 13.199219 C 28.910156 12.960938 25.863281 9.914062 25.578125 9.777344 C 25.324219 9.660156 25.148438 9.648438 24.867188 9.730469 Z M 24.867188 9.730469 "/>
</g>
</svg>
